<svg width="19" height="7" viewBox="0 0 19 7" fill="none" xmlns="http://www.w3.org/2000/svg">
<path fill-rule="evenodd" clip-rule="evenodd" d="M0.605982 3.50034C0.605982 3.36774 0.658743 3.24056 0.752657 3.14679C0.846573 3.05302 0.97395 3.00034 1.10676 3.00034L16.9244 3.00034L14.7741 0.854345C14.7275 0.807857 14.6906 0.752668 14.6654 0.691928C14.6402 0.631189 14.6272 0.566088 14.6272 0.500344C14.6272 0.4346 14.6402 0.3695 14.6654 0.308761C14.6906 0.248021 14.7275 0.192832 14.7741 0.146344C14.8207 0.0998565 14.8759 0.0629798 14.9368 0.037821C14.9976 0.0126621 15.0628 -0.000286891 15.1286 -0.000286885C15.1945 -0.000286879 15.2597 0.0126621 15.3205 0.037821C15.3814 0.0629799 15.4366 0.0998566 15.4832 0.146344L18.4879 3.14634C18.5345 3.19279 18.5715 3.24797 18.5968 3.30871C18.622 3.36946 18.635 3.43458 18.635 3.50034C18.635 3.56611 18.622 3.63123 18.5968 3.69198C18.5715 3.75272 18.5345 3.8079 18.4879 3.85434L15.4832 6.85434C15.3892 6.94823 15.2616 7.00098 15.1286 7.00098C14.9957 7.00098 14.8681 6.94823 14.7741 6.85434C14.6801 6.76046 14.6272 6.63312 14.6272 6.50034C14.6272 6.36757 14.6801 6.24023 14.7741 6.14634L16.9244 4.00034L1.10676 4.00034C0.97395 4.00034 0.846573 3.94767 0.752657 3.8539C0.658743 3.76013 0.605982 3.63295 0.605982 3.50034Z" fill="#3BA3FF"/>
</svg>
