<svg width="175" height="36" viewBox="0 0 175 36" fill="none" xmlns="http://www.w3.org/2000/svg">
<path d="M44.675 6.182V19H41.343V6.182H44.675ZM47.0638 10.279H50.1408V11.384C50.5601 10.874 50.9851 10.534 51.4158 10.364C51.8464 10.1827 52.3508 10.092 52.9288 10.092C53.5408 10.092 54.0621 10.194 54.4928 10.398C54.9348 10.5907 55.3088 10.8683 55.6148 11.231C55.8641 11.5257 56.0341 11.8543 56.1248 12.217C56.2154 12.5797 56.2608 12.9933 56.2608 13.458V19H53.1838V14.597C53.1838 14.1663 53.1498 13.8207 53.0818 13.56C53.0251 13.288 52.9174 13.0727 52.7588 12.914C52.6228 12.778 52.4698 12.6817 52.2998 12.625C52.1298 12.5683 51.9484 12.54 51.7558 12.54C51.2344 12.54 50.8321 12.6987 50.5488 13.016C50.2768 13.322 50.1408 13.764 50.1408 14.342V19H47.0638V10.279ZM58.3528 10.279H61.4298V11.384C61.8492 10.874 62.2742 10.534 62.7048 10.364C63.1355 10.1827 63.6398 10.092 64.2178 10.092C64.8298 10.092 65.3512 10.194 65.7818 10.398C66.2238 10.5907 66.5978 10.8683 66.9038 11.231C67.1532 11.5257 67.3232 11.8543 67.4138 12.217C67.5045 12.5797 67.5498 12.9933 67.5498 13.458V19H64.4728V14.597C64.4728 14.1663 64.4388 13.8207 64.3708 13.56C64.3142 13.288 64.2065 13.0727 64.0478 12.914C63.9118 12.778 63.7588 12.6817 63.5888 12.625C63.4188 12.5683 63.2375 12.54 63.0448 12.54C62.5235 12.54 62.1212 12.6987 61.8378 13.016C61.5658 13.322 61.4298 13.764 61.4298 14.342V19H58.3528V10.279ZM72.5489 14.597C72.5489 14.8917 72.5999 15.1637 72.7019 15.413C72.8152 15.651 72.9569 15.8607 73.1269 16.042C73.3082 16.2233 73.5179 16.365 73.7559 16.467C74.0052 16.569 74.2659 16.62 74.5379 16.62C74.8099 16.62 75.0649 16.569 75.3029 16.467C75.5522 16.365 75.7619 16.2233 75.9319 16.042C76.1132 15.8607 76.2549 15.651 76.3569 15.413C76.4702 15.1637 76.5269 14.8973 76.5269 14.614C76.5269 14.342 76.4702 14.087 76.3569 13.849C76.2549 13.5997 76.1132 13.3843 75.9319 13.203C75.7619 13.0217 75.5522 12.88 75.3029 12.778C75.0649 12.676 74.8099 12.625 74.5379 12.625C74.2659 12.625 74.0052 12.676 73.7559 12.778C73.5179 12.88 73.3082 13.0217 73.1269 13.203C72.9569 13.3843 72.8152 13.594 72.7019 13.832C72.5999 14.07 72.5489 14.325 72.5489 14.597ZM69.3019 14.563C69.3019 13.917 69.4322 13.3163 69.6929 12.761C69.9536 12.1943 70.3162 11.707 70.7809 11.299C71.2456 10.8797 71.7952 10.551 72.4299 10.313C73.0759 10.075 73.7786 9.956 74.5379 9.956C75.2859 9.956 75.9772 10.075 76.6119 10.313C77.2579 10.5397 77.8132 10.8627 78.2779 11.282C78.7539 11.69 79.1222 12.183 79.3829 12.761C79.6436 13.3277 79.7739 13.9567 79.7739 14.648C79.7739 15.3393 79.6379 15.974 79.3659 16.552C79.1052 17.1187 78.7426 17.6117 78.2779 18.031C77.8132 18.439 77.2522 18.7563 76.5949 18.983C75.9489 19.2097 75.2462 19.323 74.4869 19.323C73.7389 19.323 73.0476 19.2097 72.4129 18.983C71.7782 18.7563 71.2286 18.4333 70.7639 18.014C70.3106 17.5947 69.9536 17.096 69.6929 16.518C69.4322 15.9287 69.3019 15.277 69.3019 14.563ZM90.9436 6.182V16.178H94.9386V19H87.6116V6.182H90.9436ZM99.4474 10.279V19H96.3704V10.279H99.4474ZM96.1664 6.93C96.1664 6.692 96.2117 6.471 96.3024 6.267C96.3931 6.05167 96.5177 5.86467 96.6764 5.706C96.8351 5.54733 97.0164 5.42267 97.2204 5.332C97.4357 5.24133 97.6624 5.196 97.9004 5.196C98.1384 5.196 98.3594 5.24133 98.5634 5.332C98.7787 5.42267 98.9657 5.54733 99.1244 5.706C99.2831 5.86467 99.4077 6.05167 99.4984 6.267C99.5891 6.471 99.6344 6.692 99.6344 6.93C99.6344 7.168 99.5891 7.39467 99.4984 7.61C99.4077 7.814 99.2831 7.99533 99.1244 8.154C98.9657 8.31267 98.7787 8.43733 98.5634 8.528C98.3594 8.61867 98.1384 8.664 97.9004 8.664C97.6624 8.664 97.4357 8.61867 97.2204 8.528C97.0164 8.43733 96.8351 8.31267 96.6764 8.154C96.5177 7.99533 96.3931 7.814 96.3024 7.61C96.2117 7.39467 96.1664 7.168 96.1664 6.93ZM101.55 10.279H104.627V11.384C105.046 10.874 105.471 10.534 105.902 10.364C106.333 10.1827 106.837 10.092 107.415 10.092C108.027 10.092 108.548 10.194 108.979 10.398C109.421 10.5907 109.795 10.8683 110.101 11.231C110.35 11.5257 110.52 11.8543 110.611 12.217C110.702 12.5797 110.747 12.9933 110.747 13.458V19H107.67V14.597C107.67 14.1663 107.636 13.8207 107.568 13.56C107.511 13.288 107.404 13.0727 107.245 12.914C107.109 12.778 106.956 12.6817 106.786 12.625C106.616 12.5683 106.435 12.54 106.242 12.54C105.721 12.54 105.318 12.6987 105.035 13.016C104.763 13.322 104.627 13.764 104.627 14.342V19H101.55V10.279ZM115.695 14.597C115.695 14.8803 115.746 15.1467 115.848 15.396C115.95 15.634 116.086 15.8437 116.256 16.025C116.438 16.2063 116.647 16.348 116.885 16.45C117.135 16.552 117.401 16.603 117.684 16.603C117.956 16.603 118.211 16.552 118.449 16.45C118.699 16.348 118.908 16.2063 119.078 16.025C119.26 15.8437 119.401 15.634 119.503 15.396C119.616 15.1467 119.673 14.886 119.673 14.614C119.673 14.3307 119.616 14.07 119.503 13.832C119.401 13.594 119.26 13.3843 119.078 13.203C118.897 13.0217 118.681 12.88 118.432 12.778C118.194 12.676 117.945 12.625 117.684 12.625C117.412 12.625 117.157 12.6817 116.919 12.795C116.681 12.897 116.471 13.0387 116.29 13.22C116.109 13.39 115.961 13.594 115.848 13.832C115.746 14.07 115.695 14.325 115.695 14.597ZM122.597 10.279V18.405C122.597 18.8923 122.569 19.3287 122.512 19.714C122.455 20.0993 122.376 20.4393 122.274 20.734C122.138 21.108 121.923 21.4537 121.628 21.771C121.345 22.0997 120.999 22.383 120.591 22.621C120.183 22.859 119.718 23.046 119.197 23.182C118.687 23.318 118.132 23.386 117.531 23.386C116.851 23.386 116.228 23.301 115.661 23.131C115.095 22.961 114.596 22.723 114.165 22.417C113.746 22.1223 113.4 21.771 113.128 21.363C112.856 20.9663 112.675 20.53 112.584 20.054H116.052C116.268 20.632 116.755 20.921 117.514 20.921C118.16 20.921 118.653 20.7397 118.993 20.377C119.345 20.0143 119.52 19.51 119.52 18.864V18.031C119.294 18.2463 119.073 18.4277 118.857 18.575C118.653 18.711 118.444 18.8243 118.228 18.915C118.013 19.0057 117.786 19.068 117.548 19.102C117.31 19.1473 117.049 19.17 116.766 19.17C116.143 19.17 115.571 19.0623 115.049 18.847C114.528 18.6317 114.075 18.3313 113.689 17.946C113.315 17.5607 113.02 17.1017 112.805 16.569C112.601 16.025 112.499 15.4243 112.499 14.767C112.499 14.0983 112.613 13.4807 112.839 12.914C113.066 12.336 113.372 11.8373 113.757 11.418C114.154 10.9873 114.618 10.653 115.151 10.415C115.695 10.1657 116.284 10.041 116.919 10.041C117.95 10.041 118.818 10.4263 119.52 11.197V10.279H122.597ZM127.273 10.279L129.347 14.75L131.455 10.279H134.889L130.35 19H128.293L123.805 10.279H127.273ZM138.407 14.597C138.407 14.8917 138.458 15.1637 138.56 15.413C138.674 15.651 138.815 15.8607 138.985 16.042C139.167 16.2233 139.376 16.365 139.614 16.467C139.864 16.569 140.124 16.62 140.396 16.62C140.668 16.62 140.923 16.569 141.161 16.467C141.411 16.365 141.62 16.2233 141.79 16.042C141.972 15.8607 142.113 15.651 142.215 15.413C142.329 15.1637 142.385 14.8973 142.385 14.614C142.385 14.342 142.329 14.087 142.215 13.849C142.113 13.5997 141.972 13.3843 141.79 13.203C141.62 13.0217 141.411 12.88 141.161 12.778C140.923 12.676 140.668 12.625 140.396 12.625C140.124 12.625 139.864 12.676 139.614 12.778C139.376 12.88 139.167 13.0217 138.985 13.203C138.815 13.3843 138.674 13.594 138.56 13.832C138.458 14.07 138.407 14.325 138.407 14.597ZM135.16 14.563C135.16 13.917 135.291 13.3163 135.551 12.761C135.812 12.1943 136.175 11.707 136.639 11.299C137.104 10.8797 137.654 10.551 138.288 10.313C138.934 10.075 139.637 9.956 140.396 9.956C141.144 9.956 141.836 10.075 142.47 10.313C143.116 10.5397 143.672 10.8627 144.136 11.282C144.612 11.69 144.981 12.183 145.241 12.761C145.502 13.3277 145.632 13.9567 145.632 14.648C145.632 15.3393 145.496 15.974 145.224 16.552C144.964 17.1187 144.601 17.6117 144.136 18.031C143.672 18.439 143.111 18.7563 142.453 18.983C141.807 19.2097 141.105 19.323 140.345 19.323C139.597 19.323 138.906 19.2097 138.271 18.983C137.637 18.7563 137.087 18.4333 136.622 18.014C136.169 17.5947 135.812 17.096 135.551 16.518C135.291 15.9287 135.16 15.277 135.16 14.563Z" fill="white"/>
<path d="M43.1459 24.146C44.1726 24.146 44.9206 24.3477 45.3899 24.751C45.8592 25.1543 46.0939 25.7227 46.0939 26.456C46.0939 26.8887 45.9949 27.2957 45.7969 27.677C45.6062 28.051 45.2799 28.3553 44.8179 28.59C44.3632 28.8247 43.7436 28.942 42.9589 28.942H42.0569V32H41.0669V24.146H43.1459ZM43.0579 24.993H42.0569V28.095H42.8489C43.5969 28.095 44.1542 27.974 44.5209 27.732C44.8876 27.49 45.0709 27.0793 45.0709 26.5C45.0709 25.994 44.9096 25.6163 44.5869 25.367C44.2642 25.1177 43.7546 24.993 43.0579 24.993ZM49.8281 26.005C50.5467 26.005 51.0784 26.1627 51.4231 26.478C51.7677 26.7933 51.9401 27.2957 51.9401 27.985V32H51.2361L51.0491 31.164H51.0051C50.7484 31.4867 50.4771 31.725 50.1911 31.879C49.9124 32.033 49.5237 32.11 49.0251 32.11C48.4897 32.11 48.0461 31.9707 47.6941 31.692C47.3421 31.406 47.1661 30.9623 47.1661 30.361C47.1661 29.7743 47.3971 29.3233 47.8591 29.008C48.3211 28.6853 49.0324 28.5093 49.9931 28.48L50.9941 28.447V28.095C50.9941 27.6037 50.8877 27.2627 50.6751 27.072C50.4624 26.8813 50.1617 26.786 49.7731 26.786C49.4651 26.786 49.1717 26.8337 48.8931 26.929C48.6144 27.017 48.3541 27.1197 48.1121 27.237L47.8151 26.511C48.0717 26.3717 48.3761 26.2543 48.7281 26.159C49.0801 26.0563 49.4467 26.005 49.8281 26.005ZM50.1141 29.151C49.3807 29.1803 48.8711 29.2977 48.5851 29.503C48.3064 29.7083 48.1671 29.998 48.1671 30.372C48.1671 30.702 48.2661 30.944 48.4641 31.098C48.6694 31.252 48.9297 31.329 49.2451 31.329C49.7437 31.329 50.1581 31.1933 50.4881 30.922C50.8181 30.6433 50.9831 30.218 50.9831 29.646V29.118L50.1141 29.151ZM55.3121 25.994C55.9867 25.994 56.5221 26.1297 56.9181 26.401C57.3214 26.665 57.5231 27.0463 57.5231 27.545C57.5231 27.9043 57.4241 28.1903 57.2261 28.403C57.0281 28.6083 56.7567 28.7587 56.4121 28.854V28.898C56.6467 28.964 56.8631 29.0557 57.0611 29.173C57.2591 29.2903 57.4167 29.4443 57.5341 29.635C57.6587 29.8257 57.7211 30.0713 57.7211 30.372C57.7211 30.8633 57.5157 31.2777 57.1051 31.615C56.7017 31.945 56.0674 32.11 55.2021 32.11C54.7767 32.11 54.3917 32.0733 54.0471 32C53.7024 31.934 53.4164 31.8423 53.1891 31.725V30.856C53.4384 30.9733 53.7317 31.0797 54.0691 31.175C54.4137 31.2703 54.7877 31.318 55.1911 31.318C55.6311 31.318 56.0014 31.2447 56.3021 31.098C56.6101 30.944 56.7641 30.6837 56.7641 30.317C56.7641 29.657 56.2031 29.327 55.0811 29.327H54.2891V28.535H54.9271C55.4331 28.535 55.8364 28.469 56.1371 28.337C56.4451 28.1977 56.5991 27.963 56.5991 27.633C56.5991 27.3543 56.4817 27.1453 56.2471 27.006C56.0197 26.8667 55.6897 26.797 55.2571 26.797C54.9344 26.797 54.6484 26.83 54.3991 26.896C54.1571 26.9547 53.8894 27.0463 53.5961 27.171L53.2551 26.401C53.8711 26.1297 54.5567 25.994 55.3121 25.994ZM63.8947 27.589C63.8947 27.9557 63.7847 28.2417 63.5647 28.447C63.3447 28.6523 63.0623 28.7917 62.7177 28.865V28.909C63.0843 28.9603 63.4033 29.0923 63.6747 29.305C63.946 29.5103 64.0817 29.833 64.0817 30.273C64.0817 30.7717 63.8947 31.186 63.5207 31.516C63.154 31.8387 62.5453 32 61.6947 32H59.1537V26.104H61.6837C62.1017 26.104 62.4757 26.1517 62.8057 26.247C63.143 26.335 63.407 26.489 63.5977 26.709C63.7957 26.9217 63.8947 27.215 63.8947 27.589ZM62.9157 27.71C62.9157 27.4313 62.813 27.2297 62.6077 27.105C62.4097 26.973 62.0833 26.907 61.6287 26.907H60.1217V28.524H61.4526C62.428 28.524 62.9157 28.2527 62.9157 27.71ZM63.0807 30.273C63.0807 29.9357 62.9523 29.6937 62.6957 29.547C62.439 29.4003 62.0613 29.327 61.5627 29.327H60.1217V31.219H61.5847C62.0687 31.219 62.439 31.1493 62.6957 31.01C62.9523 30.8633 63.0807 30.6177 63.0807 30.273ZM66.4045 29.701C66.4045 29.789 66.4009 29.921 66.3935 30.097C66.3862 30.273 66.3752 30.449 66.3605 30.625C66.3532 30.801 66.3459 30.9403 66.3385 31.043L69.4955 26.104H70.6835V32H69.7815V28.524C69.7815 28.4067 69.7815 28.2527 69.7815 28.062C69.7889 27.8713 69.7962 27.6843 69.8035 27.501C69.8109 27.3103 69.8182 27.1673 69.8255 27.072L66.6905 32H65.4915V26.104H66.4045V29.701ZM77.3009 27.589C77.3009 27.9557 77.1909 28.2417 76.9709 28.447C76.7509 28.6523 76.4686 28.7917 76.1239 28.865V28.909C76.4906 28.9603 76.8096 29.0923 77.0809 29.305C77.3522 29.5103 77.4879 29.833 77.4879 30.273C77.4879 30.7717 77.3009 31.186 76.9269 31.516C76.5602 31.8387 75.9516 32 75.1009 32H72.5599V26.104H75.0899C75.5079 26.104 75.8819 26.1517 76.2119 26.247C76.5492 26.335 76.8132 26.489 77.0039 26.709C77.2019 26.9217 77.3009 27.215 77.3009 27.589ZM76.3219 27.71C76.3219 27.4313 76.2192 27.2297 76.0139 27.105C75.8159 26.973 75.4896 26.907 75.0349 26.907H73.5279V28.524H74.8589C75.8342 28.524 76.3219 28.2527 76.3219 27.71ZM76.4869 30.273C76.4869 29.9357 76.3586 29.6937 76.1019 29.547C75.8452 29.4003 75.4676 29.327 74.9689 29.327H73.5279V31.219H74.9909C75.4749 31.219 75.8452 31.1493 76.1019 31.01C76.3586 30.8633 76.4869 30.6177 76.4869 30.273ZM81.1308 26.005C81.8495 26.005 82.3811 26.1627 82.7258 26.478C83.0705 26.7933 83.2428 27.2957 83.2428 27.985V32H82.5388L82.3518 31.164H82.3078C82.0511 31.4867 81.7798 31.725 81.4938 31.879C81.2151 32.033 80.8265 32.11 80.3278 32.11C79.7925 32.11 79.3488 31.9707 78.9968 31.692C78.6448 31.406 78.4688 30.9623 78.4688 30.361C78.4688 29.7743 78.6998 29.3233 79.1618 29.008C79.6238 28.6853 80.3351 28.5093 81.2958 28.48L82.2968 28.447V28.095C82.2968 27.6037 82.1905 27.2627 81.9778 27.072C81.7651 26.8813 81.4645 26.786 81.0758 26.786C80.7678 26.786 80.4745 26.8337 80.1958 26.929C79.9171 27.017 79.6568 27.1197 79.4148 27.237L79.1178 26.511C79.3745 26.3717 79.6788 26.2543 80.0308 26.159C80.3828 26.0563 80.7495 26.005 81.1308 26.005ZM81.4168 29.151C80.6835 29.1803 80.1738 29.2977 79.8878 29.503C79.6091 29.7083 79.4698 29.998 79.4698 30.372C79.4698 30.702 79.5688 30.944 79.7668 31.098C79.9721 31.252 80.2325 31.329 80.5478 31.329C81.0465 31.329 81.4608 31.1933 81.7908 30.922C82.1208 30.6433 82.2858 30.218 82.2858 29.646V29.118L81.4168 29.151ZM87.3408 25.994C87.8468 25.994 88.2795 26.104 88.6388 26.324C89.0055 26.544 89.2841 26.8557 89.4748 27.259C89.6728 27.655 89.7718 28.1207 89.7718 28.656V29.239H85.7348C85.7495 29.9063 85.9181 30.416 86.2408 30.768C86.5708 31.1127 87.0291 31.285 87.6158 31.285C87.9898 31.285 88.3198 31.252 88.6058 31.186C88.8991 31.1127 89.1998 31.01 89.5078 30.878V31.725C89.2071 31.857 88.9101 31.9523 88.6168 32.011C88.3235 32.077 87.9751 32.11 87.5718 32.11C87.0145 32.11 86.5195 31.9963 86.0868 31.769C85.6615 31.5417 85.3278 31.2043 85.0858 30.757C84.8511 30.3023 84.7338 29.7487 84.7338 29.096C84.7338 28.4507 84.8401 27.897 85.0528 27.435C85.2728 26.973 85.5771 26.6173 85.9658 26.368C86.3618 26.1187 86.8201 25.994 87.3408 25.994ZM87.3298 26.786C86.8678 26.786 86.5011 26.9363 86.2298 27.237C85.9658 27.5303 85.8081 27.941 85.7568 28.469H88.7598C88.7525 27.9703 88.6351 27.567 88.4078 27.259C88.1805 26.9437 87.8211 26.786 87.3298 26.786ZM97.5978 26.104V32H96.7288V28.238C96.7288 28.084 96.7325 27.9227 96.7398 27.754C96.7545 27.5853 96.7691 27.4203 96.7838 27.259H96.7508L94.8258 32H94.0118L92.1418 27.259H92.1088C92.1308 27.589 92.1418 27.9263 92.1418 28.271V32H91.2728V26.104H92.5598L94.4188 30.845L96.3108 26.104H97.5978ZM105.679 25.994C106.405 25.994 106.988 26.247 107.428 26.753C107.876 27.259 108.1 28.0217 108.1 29.041C108.1 30.0457 107.876 30.8083 107.428 31.329C106.988 31.8497 106.402 32.11 105.669 32.11C105.214 32.11 104.836 32.0257 104.535 31.857C104.242 31.681 104.011 31.4793 103.842 31.252H103.777C103.791 31.3767 103.806 31.5343 103.82 31.725C103.835 31.9157 103.842 32.0807 103.842 32.22V34.64H102.875V26.104H103.667L103.799 26.907H103.842C104.018 26.6503 104.249 26.434 104.535 26.258C104.821 26.082 105.203 25.994 105.679 25.994ZM105.504 26.808C104.902 26.808 104.477 26.9767 104.228 27.314C103.986 27.6513 103.857 28.1647 103.842 28.854V29.041C103.842 29.767 103.96 30.328 104.194 30.724C104.436 31.1127 104.88 31.307 105.525 31.307C105.885 31.307 106.178 31.208 106.406 31.01C106.64 30.812 106.813 30.5443 106.923 30.207C107.04 29.8623 107.099 29.47 107.099 29.03C107.099 28.3553 106.966 27.8163 106.702 27.413C106.446 27.0097 106.046 26.808 105.504 26.808ZM108.611 26.104H109.645L110.921 29.459C111.031 29.7523 111.13 30.0347 111.218 30.306C111.306 30.57 111.372 30.823 111.416 31.065H111.46C111.504 30.8817 111.573 30.6433 111.669 30.35C111.764 30.0493 111.863 29.7487 111.966 29.448L113.165 26.104H114.21L111.669 32.814C111.463 33.3713 111.196 33.815 110.866 34.145C110.543 34.475 110.096 34.64 109.524 34.64C109.348 34.64 109.194 34.629 109.062 34.607C108.93 34.5923 108.816 34.574 108.721 34.552V33.782C108.801 33.7967 108.897 33.8113 109.007 33.826C109.124 33.8407 109.245 33.848 109.37 33.848C109.707 33.848 109.978 33.7527 110.184 33.562C110.396 33.3713 110.561 33.1183 110.679 32.803L110.987 32.022L108.611 26.104ZM117.507 32.11C116.986 32.11 116.521 32.0037 116.11 31.791C115.707 31.5783 115.388 31.2483 115.153 30.801C114.926 30.3537 114.812 29.7817 114.812 29.085C114.812 28.359 114.933 27.7687 115.175 27.314C115.417 26.8593 115.743 26.5257 116.154 26.313C116.572 26.1003 117.045 25.994 117.573 25.994C117.874 25.994 118.163 26.027 118.442 26.093C118.721 26.1517 118.948 26.225 119.124 26.313L118.827 27.116C118.651 27.05 118.446 26.9877 118.211 26.929C117.976 26.8703 117.756 26.841 117.551 26.841C116.392 26.841 115.813 27.5853 115.813 29.074C115.813 29.7853 115.952 30.3317 116.231 30.713C116.517 31.087 116.939 31.274 117.496 31.274C117.819 31.274 118.101 31.241 118.343 31.175C118.592 31.109 118.82 31.0283 119.025 30.933V31.791C118.827 31.8937 118.607 31.9707 118.365 32.022C118.13 32.0807 117.844 32.11 117.507 32.11ZM122.792 32.11C122.271 32.11 121.806 32.0037 121.395 31.791C120.992 31.5783 120.673 31.2483 120.438 30.801C120.211 30.3537 120.097 29.7817 120.097 29.085C120.097 28.359 120.218 27.7687 120.46 27.314C120.702 26.8593 121.029 26.5257 121.439 26.313C121.857 26.1003 122.33 25.994 122.858 25.994C123.159 25.994 123.449 26.027 123.727 26.093C124.006 26.1517 124.233 26.225 124.409 26.313L124.112 27.116C123.936 27.05 123.731 26.9877 123.496 26.929C123.262 26.8703 123.041 26.841 122.836 26.841C121.677 26.841 121.098 27.5853 121.098 29.074C121.098 29.7853 121.237 30.3317 121.516 30.713C121.802 31.087 122.224 31.274 122.781 31.274C123.104 31.274 123.386 31.241 123.628 31.175C123.877 31.109 124.105 31.0283 124.31 30.933V31.791C124.112 31.8937 123.892 31.9707 123.65 32.022C123.415 32.0807 123.129 32.11 122.792 32.11ZM129.199 26.104H130.255L127.736 28.942L130.464 32H129.342L126.68 29.008V32H125.712V26.104H126.68V28.964L129.199 26.104ZM130.611 26.104H131.645L132.921 29.459C133.031 29.7523 133.13 30.0347 133.218 30.306C133.306 30.57 133.372 30.823 133.416 31.065H133.46C133.504 30.8817 133.573 30.6433 133.669 30.35C133.764 30.0493 133.863 29.7487 133.966 29.448L135.165 26.104H136.21L133.669 32.814C133.463 33.3713 133.196 33.815 132.866 34.145C132.543 34.475 132.096 34.64 131.524 34.64C131.348 34.64 131.194 34.629 131.062 34.607C130.93 34.5923 130.816 34.574 130.721 34.552V33.782C130.801 33.7967 130.897 33.8113 131.007 33.826C131.124 33.8407 131.245 33.848 131.37 33.848C131.707 33.848 131.978 33.7527 132.184 33.562C132.396 33.3713 132.561 33.1183 132.679 32.803L132.987 32.022L130.611 26.104ZM144.798 29.041C144.798 30.0163 144.563 30.7717 144.094 31.307C143.625 31.8423 142.99 32.11 142.191 32.11C141.443 32.11 140.838 31.8753 140.376 31.406C139.921 30.9367 139.665 30.2583 139.606 29.371H138.11V32H137.142V26.104H138.11V28.557H139.617C139.698 27.7283 139.965 27.094 140.42 26.654C140.875 26.214 141.472 25.994 142.213 25.994C142.719 25.994 143.166 26.115 143.555 26.357C143.944 26.5917 144.248 26.9363 144.468 27.391C144.688 27.8383 144.798 28.3883 144.798 29.041ZM140.596 29.041C140.596 29.7817 140.724 30.3463 140.981 30.735C141.238 31.1163 141.645 31.307 142.202 31.307C142.767 31.307 143.174 31.1163 143.423 30.735C143.672 30.3463 143.797 29.7817 143.797 29.041C143.797 28.3003 143.669 27.743 143.412 27.369C143.163 26.995 142.759 26.808 142.202 26.808C141.645 26.808 141.238 26.995 140.981 27.369C140.724 27.743 140.596 28.3003 140.596 29.041ZM152.537 25.994C153.263 25.994 153.846 26.247 154.286 26.753C154.733 27.259 154.957 28.0217 154.957 29.041C154.957 30.0457 154.733 30.8083 154.286 31.329C153.846 31.8497 153.259 32.11 152.526 32.11C152.071 32.11 151.694 32.0257 151.393 31.857C151.1 31.681 150.869 31.4793 150.7 31.252H150.634C150.649 31.3767 150.663 31.5343 150.678 31.725C150.693 31.9157 150.7 32.0807 150.7 32.22V34.64H149.732V26.104H150.524L150.656 26.907H150.7C150.876 26.6503 151.107 26.434 151.393 26.258C151.679 26.082 152.06 25.994 152.537 25.994ZM152.361 26.808C151.76 26.808 151.334 26.9767 151.085 27.314C150.843 27.6513 150.715 28.1647 150.7 28.854V29.041C150.7 29.767 150.817 30.328 151.052 30.724C151.294 31.1127 151.738 31.307 152.383 31.307C152.742 31.307 153.036 31.208 153.263 31.01C153.498 30.812 153.67 30.5443 153.78 30.207C153.897 29.8623 153.956 29.47 153.956 29.03C153.956 28.3553 153.824 27.8163 153.56 27.413C153.303 27.0097 152.904 26.808 152.361 26.808ZM158.776 25.994C159.282 25.994 159.715 26.104 160.074 26.324C160.441 26.544 160.72 26.8557 160.91 27.259C161.108 27.655 161.207 28.1207 161.207 28.656V29.239H157.17C157.185 29.9063 157.354 30.416 157.676 30.768C158.006 31.1127 158.465 31.285 159.051 31.285C159.425 31.285 159.755 31.252 160.041 31.186C160.335 31.1127 160.635 31.01 160.943 30.878V31.725C160.643 31.857 160.346 31.9523 160.052 32.011C159.759 32.077 159.411 32.11 159.007 32.11C158.45 32.11 157.955 31.9963 157.522 31.769C157.097 31.5417 156.763 31.2043 156.521 30.757C156.287 30.3023 156.169 29.7487 156.169 29.096C156.169 28.4507 156.276 27.897 156.488 27.435C156.708 26.973 157.013 26.6173 157.401 26.368C157.797 26.1187 158.256 25.994 158.776 25.994ZM158.765 26.786C158.303 26.786 157.937 26.9363 157.665 27.237C157.401 27.5303 157.244 27.941 157.192 28.469H160.195C160.188 27.9703 160.071 27.567 159.843 27.259C159.616 26.9437 159.257 26.786 158.765 26.786ZM163.555 28.249C163.555 28.9237 163.933 29.261 164.688 29.261C165.055 29.261 165.389 29.206 165.689 29.096C165.99 28.9787 166.298 28.8247 166.613 28.634V26.104H167.581V32H166.613V29.371C166.283 29.5837 165.957 29.7523 165.634 29.877C165.319 29.9943 164.938 30.053 164.49 30.053C163.889 30.053 163.42 29.8953 163.082 29.58C162.752 29.2647 162.587 28.843 162.587 28.315V26.104H163.555V28.249ZM172.172 28.524C173.704 28.524 174.471 29.0813 174.471 30.196C174.471 30.746 174.284 31.186 173.91 31.516C173.536 31.8387 172.942 32 172.128 32H169.455V26.104H170.423V28.524H172.172ZM173.503 30.251C173.503 29.8917 173.374 29.6497 173.118 29.525C172.868 29.393 172.516 29.327 172.062 29.327H170.423V31.219H172.084C172.494 31.219 172.832 31.1457 173.096 30.999C173.367 30.8523 173.503 30.603 173.503 30.251Z" fill="white"/>
<path d="M18 36C27.9411 36 36 27.9411 36 18C36 8.05887 27.9411 0 18 0C8.05887 0 0 8.05887 0 18C0 27.9411 8.05887 36 18 36Z" fill="url(#paint0_linear_110_243)"/>
<defs>
<linearGradient id="paint0_linear_110_243" x1="18" y1="18" x2="18" y2="36" gradientUnits="userSpaceOnUse">
<stop stop-color="#B467E9"/>
<stop offset="1" stop-color="#E967CC"/>
</linearGradient>
</defs>
</svg>
